<?xml version="1.0" encoding="UTF-8" standalone="no"?><!DOCTYPE svg PUBLIC "-//W3C//DTD SVG 1.1//EN" "http://www.w3.org/Graphics/SVG/1.1/DTD/svg11.dtd"><svg width="100%" height="100%" viewBox="0 0 628 600" version="1.1" xmlns="http://www.w3.org/2000/svg" xmlns:xlink="http://www.w3.org/1999/xlink" xml:space="preserve" xmlns:serif="http://www.serif.com/" style="fill-rule:evenodd;clip-rule:evenodd;stroke-linecap:round;stroke-linejoin:round;"><rect id="Artboard5" x="0" y="0" width="627.273" height="600" style="fill:none;"/><g><path d="M291.818,539.792l0,-409.091c0,-14.961 -12.106,-27.273 -26.818,-27.273l-134.091,0c-29.424,0 -53.636,24.623 -53.636,54.545l0,327.273c0,29.923 24.212,54.545 53.636,54.545l321.818,0c29.424,0 53.636,-24.623 53.636,-54.545l0,-136.364c0,-14.961 -12.106,-27.273 -26.818,-27.273l-402.273,0" style="fill:#fff;fill-rule:nonzero;stroke:#211e2f;stroke-width:25px;"/><path d="M550,67.065l0,200c0,5.017 -4.073,9.091 -9.091,9.091l-196.364,0c-5.017,0 -9.091,-4.073 -9.091,-9.091l0,-200c0,-5.017 4.073,-9.091 9.091,-9.091l196.364,0c5.017,0 9.091,4.073 9.091,9.091Z" style="fill:#e9865c;"/></g></svg>